<svg xmlns="http://www.w3.org/2000/svg" width="81" height="81" viewBox="0 0 81 81">
  <g id="Grupo_246" data-name="Grupo 246" transform="translate(-1615 -3118)">
    <g id="Componente_34_2" data-name="Componente 34 – 2" transform="translate(1615 3118)">
      <circle id="Elipse_35" data-name="Elipse 35" cx="40.5" cy="40.5" r="40.5" fill="#d86527"/>
      <g id="Grupo_192" data-name="Grupo 192" transform="translate(13.453 13.276)">
        <path id="Trazado_436" data-name="Trazado 436" d="M1968.957,431.373A27.12,27.12,0,1,1,1942,458.808,27.226,27.226,0,0,1,1968.957,431.373Z" transform="translate(-1941.995 -431.372)" fill="#fff"/>
        <path id="Trazado_437" data-name="Trazado 437" d="M2003.81,460.953c-.492,1.418.3,1.947,1.744,2.306,1.988.494,2.66,2.007,2.115,4.03-.312,1.157-1.012.917-1.781.585a10.132,10.132,0,0,0-4.623-1.132c-1.386.078-2.625.394-2.955,1.911-.337,1.55.731,2.368,1.963,2.922,1.4.63,2.861,1.137,4.271,1.75,3.212,1.395,4.834,3.816,4.624,6.829a6.907,6.907,0,0,1-5.632,6.494c-1.99.394-2.735,1.3-2.657,3.134.074,1.767-.872,2.181-2.422,2.063-1.236-.095-1.821-.627-1.49-1.853.55-2.036.059-3.129-2.244-3.56-2.117-.4-2.774-2.035-2.174-4.154.4-1.413,1.284-.922,2.106-.512a9.341,9.341,0,0,0,6.293,1.17c1.384-.3,2.455-.957,2.646-2.41s-.857-2.214-2.007-2.742c-1.28-.588-2.614-1.057-3.916-1.6-3.507-1.456-5.02-3.757-4.794-7.269.191-2.973,2.093-5.073,5.653-5.912,1.177-.277,1.244-.9,1.411-1.843s-.37-2.33,1.194-2.692C2003.221,457.989,2003.945,458.613,2003.81,460.953Z" transform="translate(-1972.928 -447.931)" fill="#d86527"/>
      </g>
    </g>
  </g>
</svg>
