<svg id="Componente_44_3" data-name="Componente 44 – 3" xmlns="http://www.w3.org/2000/svg" width="81" height="81" viewBox="0 0 81 81">
  <circle id="Elipse_33" data-name="Elipse 33" cx="40.5" cy="40.5" r="40.5" fill="#d86527"/>
  <g id="Grupo_208" data-name="Grupo 208" transform="translate(7.772 20.251)">
    <path id="Trazado_527" data-name="Trazado 527" d="M558.3,362.032a5.9,5.9,0,0,0-2.364-4.8A22.562,22.562,0,0,0,554,355.964c.957-.069,1.753-.1,2.543-.19a1.117,1.117,0,0,0,1.069-1.237c.02-.74-.02-1.527-.918-1.607-1.492-.134-3.037-.738-4.513.359-.712-1.295-1.372-2.539-2.074-3.759-1.137-1.978-1.754-3.106-4.08-3.178l-.144,0c-1.111-.065-2.72-.12-4.668-.165-1.732-.058-3.468-.1-4.931-.1-.425,0-.859,0-1.3,0-10.763-.108-25.153,0-29.282.344a6.368,6.368,0,0,0-1.829.485,6.925,6.925,0,0,0-3.409,3.665c-.454.892-.946,1.765-1.451,2.7-1.51-1.063-3.059-.476-4.551-.358-.889.07-.923.878-.906,1.616a1.126,1.126,0,0,0,1.083,1.227c.773.1,1.553.138,2.573.225-.521.292-.828.447-1.117.629-1.776,1.12-3.112,2.617-3.184,4.786-.109,3.268-.049,6.543,0,9.814a1.613,1.613,0,0,0,.585,1.248c.794.363.809.924.765,1.606-.026.4-.022.811-.008,1.216a1.775,1.775,0,0,0,1.8,1.835c.838.036,1.68.032,2.519.008a1.8,1.8,0,0,0,1.84-1.8,11.267,11.267,0,0,0-.008-1.562c-.06-.67.158-.9.866-.889.365.006.731.009,1.1.013-.008,2.349.041,4.7.07,7.049.006.463.284,1.2.619,1.328.988.372.858,1.085.843,1.826q-.013.608.005,1.216a2.1,2.1,0,0,0,2.1,2.2,27.211,27.211,0,0,0,2.865-.018,2.023,2.023,0,0,0,2.007-2.088,11.307,11.307,0,0,0,.008-1.649c-.077-.8.233-1.024,1.028-1.021,6.833.025,13.667.009,20.5.006,3.359,0,6.718.014,10.076-.014.68-.006.942.2.883.892a12.83,12.83,0,0,0,0,1.823,2.027,2.027,0,0,0,2.034,2.067,25.451,25.451,0,0,0,2.952-.019,2.015,2.015,0,0,0,1.981-2.114c.027-.694-.01-1.391.029-2.084.013-.227.124-.59.278-.645,1.151-.413,1.225-1.346,1.224-2.339q0-1.169,0-2.337a1.883,1.883,0,0,0,.615.143,24.821,24.821,0,0,0,2.692.012,1.783,1.783,0,0,0,1.75-1.8c.025-.636-.013-1.276.031-1.911.015-.216.141-.544.3-.611A1.776,1.776,0,0,0,558.3,370.9C558.3,367.941,558.284,364.987,558.3,362.032Zm-46.994-.121a3.6,3.6,0,0,1-.149-1.523q.7-1.317,1.408-2.629c2.041-3.366,1.878-2.891,1.855-2.907a4.935,4.935,0,0,1,3.234-1.386,124.872,124.872,0,0,1,19.524.088,3.819,3.819,0,0,1,2.693,1.356c.246,1.027,2.295,3.641,2.374,5.3a5.438,5.438,0,0,1-.1,1.441A307.865,307.865,0,0,0,511.309,361.911Zm31.135-6.952a6.77,6.77,0,0,0-5.487-3.249,148.983,148.983,0,0,0-19.528.016,8.533,8.533,0,0,0-2.042.344,6.7,6.7,0,0,0-3.582,2.832l-11.787.22c.933-1.724,1.857-3.481,2.828-5.211a4.1,4.1,0,0,1,3.461-2.152c4.8-.337,24.406-.228,34.24-.181,1.625.042,3.173.108,4.573.216a3.839,3.839,0,0,1,2.854,1.619,15.326,15.326,0,0,1,1.172,1.924c.684,1.261,1.335,2.538,1.988,3.786Z" transform="translate(-492.85 -346.044)" fill="#fff"/>
  </g>
</svg>
