<svg id="Componente_43_3" data-name="Componente 43 – 3" xmlns="http://www.w3.org/2000/svg" width="81" height="81" viewBox="0 0 81 81">
  <circle id="Elipse_38" data-name="Elipse 38" cx="40.5" cy="40.5" r="40.5" fill="#d86527"/>
  <g id="Grupo_214" data-name="Grupo 214" transform="translate(18.581 13.381)">
    <path id="Trazado_438" data-name="Trazado 438" d="M2268.241,574.093c.076,5.356.084,10.68-1.391,15.928-2.868,10.2-8.895,17.55-18.822,21.544a4.276,4.276,0,0,1-3.327.021c-9.969-3.953-15.932-11.354-18.85-21.526-1.847-6.441-1.291-13-1.4-19.537-.027-1.684.042-3.371-.014-5.054-.045-1.353.495-1.761,1.842-1.661a28.029,28.029,0,0,0,15.208-2.937,17.057,17.057,0,0,0,3.821-2.694,1.308,1.308,0,0,1,2.035-.031c5.37,4.662,11.787,6.023,18.659,5.661,1.815-.1,2.331.437,2.263,2.165C2268.163,568.675,2268.241,571.386,2268.241,574.093Z" transform="translate(-2224.438 -557.675)" fill="#fff"/>
    <path id="Unión_6" data-name="Unión 6" d="M7.923,17.923V12.076H2.077a2.077,2.077,0,1,1,0-4.154H7.923V2.076a2.077,2.077,0,0,1,4.154,0V7.923h5.845a2.077,2.077,0,1,1,0,4.154H12.077v5.846a2.077,2.077,0,0,1-4.154,0Z" transform="translate(11.919 17.12)" fill="#d86527"/>
  </g>
</svg>
