<svg id="Componente_55_1" data-name="Componente 55 – 1" xmlns="http://www.w3.org/2000/svg" width="81" height="81" viewBox="0 0 81 81">
  <g id="Grupo_262" data-name="Grupo 262" transform="translate(-1842 -3118)">
    <g id="Componente_35_5" data-name="Componente 35 – 5" transform="translate(1842 3118)">
      <circle id="Elipse_36" data-name="Elipse 36" cx="40.5" cy="40.5" r="40.5" fill="#d86527"/>
    </g>
  </g>
  <g id="Grupo_265" data-name="Grupo 265" transform="translate(4.782 -61.257)">
    <path id="Trazado_600" data-name="Trazado 600" d="M61.484,96.683c1.444,3.266-1.165,4.91-2.872,4.75-.782-.074-1.581.034-2.369-.029-.862-.069-1.079.3-1.079,1.108.029,6.588.011,13.177.017,19.765a4.12,4.12,0,0,1-4.27,4.493c-3.443.017-6.885-.017-10.328.023-.868.011-1.1-.32-1.09-1.119.023-4.43.011-8.866.011-13.3-.006-2.232-.708-2.923-2.957-2.929-.816,0-1.639-.006-2.461.006a2.474,2.474,0,0,0-2.426,2.466c-.011,4.482-.006,8.969-.006,13.456,0,1.4-.006,1.4-1.422,1.4-3.248,0-6.5.006-9.745,0-2.952,0-4.516-1.576-4.516-4.567q-.009-9.651-.006-19.308c0-1.8,0-1.416-2.689-1.5-.548-.017-1.1.034-1.639.023a1.548,1.548,0,0,1-1.285-.708,3.881,3.881,0,0,1-.023-4.744,51.907,51.907,0,0,1,4.059-4.179Q23.3,82.858,32.225,73.944c1.17-1.176,2.461-1.987,4.213-1.581a4.354,4.354,0,0,1,2.107,1.21Q49.4,84.423,60.251,95.278c.417.417.782.879,1.193,1.3C61.587,97,61.341,96.26,61.484,96.683Z" transform="translate(0)" fill="#fff"/>
  </g>
</svg>
