<svg xmlns="http://www.w3.org/2000/svg" width="250.686" height="59.769" viewBox="0 0 250.686 59.769">
  <g id="Grupo_6" data-name="Grupo 6" transform="translate(-167.67 -439.827)">
    <g id="Grupo_1" data-name="Grupo 1" transform="translate(224.826 443.198)">
      <path id="Trazado_1" data-name="Trazado 1" d="M397.571,495.535l-5.469-.007c-.131-.527-.432-2.8-.747-5.69-2.509,3.752-6.729,5.724-12.462,5.716-11.663-.016-19.427-8.791-19.409-22.233.018-13.508,8.465-22.2,20.194-22.179,12.784.017,17.319,8.788,17.31,15.114l-7.646,1.176c.006-4.086-2.623-9.032-9.543-9.041-6.589-.009-11.934,5.453-11.947,14.942-.013,9.094,4.724,15.228,12.433,15.239,6.853.009,10.351-3.874,10.358-9.145l-12.19-.017.007-5.6,19.11.026Z" transform="translate(-359.484 -451.142)" fill="#242C53"/>
      <path id="Trazado_2" data-name="Trazado 2" d="M526.348,525.865a24.007,24.007,0,0,1-4.249.431c-3.947-.005-6.145-1.561-6.658-4.862-.909,1.746-3.5,4.913-10.036,4.9-6.665-.009-10.349-3.379-10.342-8.426.01-7.312,7.454-9.437,19.49-9.615h.518l0-1.488c0-3.43-2.063-5.7-6.14-5.7-3.753-.005-5.826,1.48-5.829,4a3.166,3.166,0,0,0,.257,1.23l-6.99,1.155a10.442,10.442,0,0,1-.384-2.847c.008-5.759,5-9.635,13.213-9.624,8.736.012,13.583,4.548,13.573,11.99l-.015,10.741c0,1.553.515,2.072,1.809,2.073a14.812,14.812,0,0,0,1.781-.225Zm-11.287-10.643,0-2.589h-.518c-8.283.118-11.779,1.408-11.783,4.449,0,2.071,1.678,3.238,4.72,3.242C512.271,520.329,515.057,517.809,515.061,515.221Z" transform="translate(-454.663 -481.948)" fill="#242C53"/>
      <path id="Trazado_3" data-name="Trazado 3" d="M638.267,510.935c-.013,9.707-6.039,15.587-14.322,15.576A10.971,10.971,0,0,1,614.5,521.9l-.024,16.513-7.894-.011.059-42.85,6.083-.251a32.119,32.119,0,0,1,.962,6.408h.129c1.623-3.686,4.991-6.529,10.621-6.521C632.789,495.2,638.28,501.682,638.267,510.935Zm-8.024-.011c.007-5.5-3.029-9.128-7.817-9.134a8,8,0,0,0-7.906,8.142l0,1.812a8.011,8.011,0,0,0,8.142,8.165C627.255,519.915,630.236,516.359,630.243,510.924Z" transform="translate(-532.956 -482.066)" fill="#242C53"/>
      <path id="Trazado_4" data-name="Trazado 4" d="M754.449,511.094c-.013,9.706-6.039,15.586-14.322,15.575a10.969,10.969,0,0,1-9.441-4.607l-.024,16.513-7.894-.011.059-42.85,6.083-.251a32.144,32.144,0,0,1,.962,6.407H730c1.622-3.686,4.991-6.529,10.621-6.521C748.97,495.362,754.462,501.84,754.449,511.094Zm-8.024-.011c.007-5.5-3.029-9.128-7.817-9.134a8,8,0,0,0-7.906,8.142l0,1.812a8.011,8.011,0,0,0,8.142,8.164C743.437,520.073,746.418,516.519,746.425,511.083Z" transform="translate(-614.518 -482.178)" fill="#242C53"/>
      <path id="Trazado_5" data-name="Trazado 5" d="M858.878,517.052l4.007,4.341c-2.334,3.038-6.8,5.426-12.949,5.418-10.16-.014-16.3-6.429-16.286-15.617s6.1-15.716,15.487-15.7c8.93.012,14.033,6.166,14.022,14.384a13.685,13.685,0,0,1-.328,3.17l-21.224-.029c.706,4.531,3.807,7.641,9.178,7.648A9.945,9.945,0,0,0,858.878,517.052Zm-17.266-8.5,14.107.019c-.059-4.012-2.579-6.927-6.591-6.933C845.181,501.633,842.33,504.282,841.613,508.552Z" transform="translate(-692.36 -482.276)" fill="#242C53"/>
      <path id="Trazado_6" data-name="Trazado 6" d="M962.219,496.421l-2.016,7.7a5.394,5.394,0,0,0-3.3-.975c-3.429,0-6.6,2.774-6.612,8.274l-.02,15.316-7.895-.011.041-30.717,6.083-.251a34.624,34.624,0,0,1,.961,6.86h.194c1.17-3.881,3.7-6.983,8.228-6.977A11.5,11.5,0,0,1,962.219,496.421Z" transform="translate(-768.689 -482.38)" fill="#242C53"/>
    </g>
    <g id="Grupo_5" data-name="Grupo 5" transform="translate(167.67 439.827)">
      <g id="Grupo_2" data-name="Grupo 2" transform="translate(0 0.18)">
        <path id="Trazado_7" data-name="Trazado 7" d="M189.21,440.43a21.511,21.511,0,1,0,21.481,21.54A21.511,21.511,0,0,0,189.21,440.43Zm-.048,35.593a14.082,14.082,0,1,1,14.1-14.063A14.082,14.082,0,0,1,189.161,476.023Z" transform="translate(-167.67 -440.43)" fill="#242C53"/>
      </g>
      <g id="Grupo_3" data-name="Grupo 3" transform="translate(0.706)">
        <path id="Trazado_8" data-name="Trazado 8" d="M170.041,439.827l41.667.057-20.561,27.825Z" transform="translate(-170.041 -439.827)" fill="#ce4e1a"/>
      </g>
      <g id="Grupo_4" data-name="Grupo 4" transform="translate(0.138 40.596)">
        <path id="Trazado_9" data-name="Trazado 9" d="M203.316,576.113a14.081,14.081,0,0,1-27.671-.038l-7.511-.01a21.506,21.506,0,0,0,42.693.058Z" transform="translate(-168.134 -576.065)" fill="#242C53"/>
      </g>
    </g>
  </g>
</svg>
