<svg xmlns="http://www.w3.org/2000/svg" width="81" height="81" viewBox="0 0 81 81">
  <g id="Grupo_245" data-name="Grupo 245" transform="translate(-1388 -3118)">
    <g id="Componente_33_2" data-name="Componente 33 – 2" transform="translate(1388 3118)">
      <circle id="Elipse_34" data-name="Elipse 34" cx="40.5" cy="40.5" r="40.5" fill="#d86527"/>
      <g id="Grupo_191" data-name="Grupo 191" transform="translate(24.099 14.085)">
        <path id="Trazado_433" data-name="Trazado 433" d="M1943.034,490.482c-.2.568-.428,1.132-.595,1.7-.88,3.034-1.867,6.051-3.008,9.043-.765,2.006-3.872,2.732-6.031,1.365a1.886,1.886,0,0,1-.989-2.372c.9-2.417,1.949-4.805,2.665-7.256a42.969,42.969,0,0,0,1.216-5.5,29.727,29.727,0,0,0,.41-5.994,19.5,19.5,0,0,0-.5-3.818c-.166-.659-.347-.707-1.158-.361a19.873,19.873,0,0,1-6.765,1.319c-.509.027-.687.158-.761.452-.234.935-.462,1.871-.695,2.806-.814,3.272-1.636,6.543-2.442,9.816-.722,2.928-1.414,5.859-2.145,8.786-.186.746-.759.946-1.7.673-.68-.2-.8-.6-.706-1.026.234-1.1.509-2.2.778-3.3,1.22-4.982,2.419-9.966,3.685-14.943.331-1.3.6-2.607.945-3.905a1.338,1.338,0,0,0-.089-.969c-.856-1.8.814-3.252,2.954-3.362a9.256,9.256,0,0,0,3.219-.6c.808-.348.85-.386.2-.9-3.384-2.679-1.477-7.047,3.472-7.94a10.038,10.038,0,0,1,6.385.907,18.72,18.72,0,0,1,6.485,4.927,15.552,15.552,0,0,1,2.549,4.928,20,20,0,0,1,.884,6.022c.079,3.242-.023,6.486.047,9.728a41.089,41.089,0,0,0,1.135,9.425c.559,2.171-1.8,3.635-4.772,2.963a2.619,2.619,0,0,1-2.206-1.931c-.421-1.833-.781-3.673-1.177-5.509-.373-1.724-.76-3.447-1.141-5.171Z" transform="translate(-1919.812 -450.811)" fill="#fff"/>
        <path id="Trazado_434" data-name="Trazado 434" d="M1935.227,389.618c4.372-.242,7.441,3.735,7.424,7.2a7.4,7.4,0,1,1-14.8.185A7.143,7.143,0,0,1,1935.227,389.618Z" transform="translate(-1926.419 -389.608)" fill="#fff"/>
      </g>
    </g>
  </g>
</svg>
