<svg id="Fb_Icon" data-name="Fb_Icon" xmlns="http://www.w3.org/2000/svg" width="49.125" height="49.125" viewBox="0 0 49.125 49.125">
  <path id="Social_Fb_Icon" data-name="Social Fb Icon" d="M265.494,1109.485a24.563,24.563,0,1,0-28.4,24.264v-17.164h-6.237v-7.1h6.237v-5.411c0-6.156,3.667-9.556,9.278-9.556a37.773,37.773,0,0,1,5.5.48v6.045h-3.1c-3.051,0-4,1.893-4,3.836v4.608h6.812l-1.089,7.1H244.77v17.164A24.569,24.569,0,0,0,265.494,1109.485Z" transform="translate(-216.369 -1084.923)" fill="#19255a"/>
  <path id="Trazado_589" data-name="Trazado 589" d="M429.817,1235.343l1.089-7.1h-6.812v-4.608c0-1.942.951-3.836,4-3.836h3.1v-6.045a37.764,37.764,0,0,0-5.5-.48c-5.611,0-9.278,3.4-9.278,9.556v5.411h-6.237v7.1h6.237v17.164a24.815,24.815,0,0,0,7.676,0v-17.164Z" transform="translate(-395.693 -1203.68)" fill="#fff"/>
</svg>
