<svg xmlns="http://www.w3.org/2000/svg" width="49.125" height="49.125" viewBox="0 0 49.125 49.125">
  <path id="Trazado_628" data-name="Trazado 628" d="M24.563,0A24.563,24.563,0,1,1,0,24.563,24.563,24.563,0,0,1,24.563,0Z" fill="#19255a"/>
  <path id="Trazado_590" data-name="Trazado 590" d="M2594.816,1268.208a11.059,11.059,0,0,1-2.709.772c.436-.073,1.076-.862,1.333-1.181a4.978,4.978,0,0,0,.9-1.64c.023-.047.04-.106-.006-.141a.155.155,0,0,0-.144.012,13.821,13.821,0,0,1-3.212,1.229.214.214,0,0,1-.221-.059,2.645,2.645,0,0,0-.281-.287,5.686,5.686,0,0,0-1.556-.953,5.418,5.418,0,0,0-2.386-.384,5.707,5.707,0,0,0-2.264.64,5.833,5.833,0,0,0-1.826,1.492,5.6,5.6,0,0,0-1.091,2.185,5.916,5.916,0,0,0-.058,2.307c.017.129.006.146-.111.129-4.412-.656-8.069-2.235-11.037-5.618-.129-.147-.2-.147-.3.011-1.3,1.947-.669,5.075.954,6.613.217.2.439.41.678.6a5.628,5.628,0,0,1-2.13-.6c-.129-.082-.194-.035-.205.111a3.412,3.412,0,0,0,.035.632,5.661,5.661,0,0,0,3.488,4.512,3.288,3.288,0,0,0,.708.216,6.307,6.307,0,0,1-2.089.065c-.152-.029-.21.047-.152.193a5.875,5.875,0,0,0,4.389,3.675c.2.035.4.035.6.081-.012.018-.024.018-.035.035-.493.751-2.2,1.311-3,1.589a10.734,10.734,0,0,1-4.552.583c-.245-.036-.3-.033-.363,0s-.009.1.07.163c.311.2.626.386.948.562a15.042,15.042,0,0,0,3.043,1.218c5.469,1.51,11.628.4,15.735-3.679,3.225-3.2,4.355-7.622,4.355-12.046,0-.173.2-.269.326-.36a10.647,10.647,0,0,0,2.142-2.227.677.677,0,0,0,.142-.427v-.023C2594.926,1268.137,2594.925,1268.158,2594.816,1268.208Z" transform="translate(-2556.682 -1252.062)" fill="#fff"/>
</svg>