<svg xmlns="http://www.w3.org/2000/svg" width="49.125" height="49.125" viewBox="0 0 49.125 49.125">
  <path id="Trazado_591" data-name="Trazado 591" d="M5730.253,1084.923a24.563,24.563,0,1,1-24.562,24.563,24.563,24.563,0,0,1,24.563-24.563" transform="translate(-5705.691 -1084.923)" fill="#19255a"/>
  <g id="Grupo_242" data-name="Grupo 242" transform="translate(10.608 10.58)">
    <path id="Trazado_592" data-name="Trazado 592" d="M5847.6,1255.024l2.049-7.641a14.139,14.139,0,1,1,5.632,5.583Zm8.063-4.921.483.288a11.484,11.484,0,1,0-3.927-3.892l.3.487-1.143,4.266Z" transform="translate(-5847.604 -1226.459)" fill="#fff"/>
    <path id="Trazado_593" data-name="Trazado 593" d="M5960.876,1337.366a2.374,2.374,0,0,0-2.021-.455c-.525.215-.86,1.036-1.2,1.456a.5.5,0,0,1-.651.141,9.151,9.151,0,0,1-4.567-3.912.56.56,0,0,1,.07-.765,3.085,3.085,0,0,0,.83-1.347,2.943,2.943,0,0,0-.371-1.594,3.783,3.783,0,0,0-1.177-1.774,1.614,1.614,0,0,0-1.752.26,3.555,3.555,0,0,0-1.232,2.817,4.038,4.038,0,0,0,.111.894,7.385,7.385,0,0,0,.857,1.976,15.659,15.659,0,0,0,.895,1.362,13.825,13.825,0,0,0,3.883,3.605,11.742,11.742,0,0,0,2.421,1.151,5.38,5.38,0,0,0,2.818.445,3.413,3.413,0,0,0,2.556-1.9,1.658,1.658,0,0,0,.119-.97C5962.321,1338.086,5961.417,1337.689,5960.876,1337.366Z" transform="translate(-5941.24 -1321.295)" fill="#fff" fill-rule="evenodd"/>
  </g>
</svg>
