<svg id="Grupo_239" data-name="Grupo 239" xmlns="http://www.w3.org/2000/svg" width="49.125" height="49.125" viewBox="0 0 49.125 49.125">
  <circle id="Elipse_49" data-name="Elipse 49" cx="24.563" cy="24.563" r="24.563" transform="translate(0 0)" fill="#19255a"/>
  <g id="Grupo_238" data-name="Grupo 238" transform="translate(10.163 10.128)">
    <g id="Grupo_237" data-name="Grupo 237">
      <path id="Trazado_585" data-name="Trazado 585" d="M1714.188,1289.2a1.688,1.688,0,1,0,1.688,1.688A1.688,1.688,0,0,0,1714.188,1289.2Z" transform="translate(-1692.164 -1284.06)" fill="#fff"/>
      <path id="Trazado_586" data-name="Trazado 586" d="M1546.885,1318.168a7.092,7.092,0,1,0,7.092,7.092A7.1,7.1,0,0,0,1546.885,1318.168Zm0,11.635a4.543,4.543,0,1,1,4.543-4.543A4.548,4.548,0,0,1,1546.885,1329.8Z" transform="translate(-1532.367 -1310.861)" fill="#fff"/>
      <path id="Trazado_587" data-name="Trazado 587" d="M1460.606,1249.214h-11.5a8.66,8.66,0,0,1-8.65-8.651v-11.5a8.66,8.66,0,0,1,8.65-8.651h11.5a8.661,8.661,0,0,1,8.651,8.651v11.5A8.661,8.661,0,0,1,1460.606,1249.214Zm-11.5-26.09a5.947,5.947,0,0,0-5.941,5.941v11.5a5.947,5.947,0,0,0,5.941,5.941h11.5a5.948,5.948,0,0,0,5.942-5.941v-11.5a5.948,5.948,0,0,0-5.942-5.941Z" transform="translate(-1440.457 -1220.414)" fill="#fff"/>
    </g>
  </g>
</svg>