<svg id="Componente_45_3" data-name="Componente 45 – 3" xmlns="http://www.w3.org/2000/svg" width="87.71" height="81" viewBox="0 0 87.71 81">
  <g id="Grupo_259" data-name="Grupo 259" transform="translate(-1334 -3393)">
    <circle id="Elipse_39" data-name="Elipse 39" cx="40.5" cy="40.5" r="40.5" transform="translate(1334 3393)" fill="#d86527"/>
    <g id="Grupo_215" data-name="Grupo 215" transform="translate(1335.262 3351.493)">
      <path id="Trazado_534" data-name="Trazado 534" d="M52.244,91.854c2.778-.176,5.552-.45,8.333-.494A4.993,4.993,0,0,0,65,89.29c2.049-2.948,4.152-5.872,6.171-8.832,1.273-1.863.782-3.647-1.145-4.584s-3.9-.352-5.312,1.594c-1.4,1.929-2.852,3.838-4.074,5.843a4.952,4.952,0,0,1-4.271,2.161h-.071a22.01,22.01,0,0,1-6.513-.882,13.366,13.366,0,0,0-4.143-.643,3.715,3.715,0,0,0-2.98,1.623c-1.948,3.007-5.074,4.464-8.91,5.244a3.749,3.749,0,0,1-3.1-.484c-3.307-2.127-6.623-4.246-9.984-6.309a4.179,4.179,0,0,0-5.338.376,2.48,2.48,0,0,0,.467,4.1c4.416,2.914,8.922,5.735,13.428,8.554a5.083,5.083,0,0,0,4.03.308A39.056,39.056,0,0,0,37.791,96.1a4.92,4.92,0,0,1,4.491.53c2.543,1.782,5.243,3.415,7.917,5.068a15.873,15.873,0,0,0,19.2-1.64,47.953,47.953,0,0,0,3.741-3.848c.925-1.085,1.719-1.212,3.075-.435,3.878,2.222,7.857,4.332,11.78,6.5a5.724,5.724,0,0,0,3.944.841,3.87,3.87,0,0,0,3.322-2.54,2.924,2.924,0,0,0-1.4-3.689Q84.8,91.771,75.578,86.848a4.485,4.485,0,0,0-5.38.851,25.767,25.767,0,0,0-3.506,3.99,4.71,4.71,0,0,1-4.815,2.034c-3.212-.445-6.561-2.4-9.755-2.924C52.107,90.691,52.259,91.959,52.244,91.854Z" transform="translate(-9 -4.825)" fill="#fff"/>
      <path id="Trazado_535" data-name="Trazado 535" d="M26.919,92.757A45.052,45.052,0,0,0,31.5,90.95c1.2-.562,1.829-.35,2.408.88,1.66,3.518,3.444,6.972,5.163,10.46a4.04,4.04,0,0,0,2.391,2.339,3.365,3.365,0,0,0,3.635-.841,3.225,3.225,0,0,0,.836-3.772Q42.019,91.873,37.9,83.829a3.224,3.224,0,0,0-4.261-1.462,25.112,25.112,0,0,0-4.483,2.027" transform="translate(21.029 5.879)" fill="#fff"/>
      <path id="Trazado_536" data-name="Trazado 536" d="M18.366,81.237a6.455,6.455,0,0,0,12.907.027,6.456,6.456,0,1,0-12.907-.027Z" transform="translate(-3.341 -6)" fill="#fff"/>
    </g>
  </g>
</svg>
