<svg id="Componente_46_1" data-name="Componente 46 – 1" xmlns="http://www.w3.org/2000/svg" width="81" height="81" viewBox="0 0 81 81">
  <circle id="Elipse_34" data-name="Elipse 34" cx="40.5" cy="40.5" r="40.5" fill="#d86527"/>
  <g id="Grupo_210" data-name="Grupo 210" transform="translate(8.682 7.609)">
    <path id="Trazado_530" data-name="Trazado 530" d="M3.46,24H30.418a3.46,3.46,0,0,1,3.46,3.46v51a3.46,3.46,0,0,1-3.46,3.46H3.46A3.46,3.46,0,0,1,0,78.458v-51A3.46,3.46,0,0,1,3.46,24Z" transform="translate(14.475 -20.228)" fill="#fff"/>
    <path id="Trazado_528" data-name="Trazado 528" d="M637.859-70.52c1.971-.217,5.124.921,5.035-2.344C642.814-75.809,636.984-70.423,637.859-70.52Zm.014,4.449c-1.886.4-5.079-.944-5.017,2.359.055,2.945,3.054,2.114,4.97,2.085,1.976-.029,5.116.97,5.061-2.28C642.836-66.886,639.785-65.72,637.873-66.071Zm-16.363,4.476c1.3,0,2.18.009,3.063,0,1.508-.018,2.491-.739,2.482-2.284-.008-1.43-1-2.035-2.35-2.087A14.586,14.586,0,0,0,622.06-66c-1.912.28-5.056-1.076-5.032,2.259C617.049-60.667,620.069-61.875,621.511-61.595Zm15.856,8.919c1.085,0,1.872-.01,2.659,0,1.536.025,2.919-.445,2.978-2.14.06-1.727-1.306-2.237-2.847-2.249a22.57,22.57,0,0,0-2.36-.007c-1.905.187-4.873-.84-4.943,2.134C632.783-51.886,635.773-52.9,637.367-52.676Zm.512,26.7v.054c.884,0,1.769.024,2.653-.005,1.494-.049,2.518-.785,2.459-2.322-.053-1.419-1.158-1.977-2.467-1.993-1.964-.023-3.934-.055-5.889.088a1.943,1.943,0,0,0-1.9,1.926,2.014,2.014,0,0,0,1.9,2.222A25.191,25.191,0,0,0,637.879-25.972Zm-.032,8.914c1.08,0,2.168.083,3.237-.023a2.022,2.022,0,0,0,1.924-1.912A1.894,1.894,0,0,0,641.4-21.15a22.018,22.018,0,0,0-7.035-.007,1.88,1.88,0,0,0-1.633,2.131,1.973,1.973,0,0,0,1.876,1.939C635.678-16.984,636.766-17.065,637.847-17.058Zm-16.29-26.721c1.387,0,2.368.034,3.345-.008a2.055,2.055,0,0,0,2.166-2.262,1.993,1.993,0,0,0-2.1-2.019,13.931,13.931,0,0,0-2.933-.052c-1.911.257-5.056-1.094-4.994,2.278C617.1-42.738,620.143-44.112,621.557-43.779ZM638.022-48.2a29.556,29.556,0,0,0-3.521.221,1.951,1.951,0,0,0-1.784,2.027,1.96,1.96,0,0,0,1.766,2.055,52.659,52.659,0,0,0,6.761,0,1.953,1.953,0,0,0,1.779-2.047,1.974,1.974,0,0,0-1.769-2.043A25.939,25.939,0,0,0,638.022-48.2ZM621.4-34.836c1.229,0,2.11-.005,2.991,0,1.445.011,2.58-.5,2.664-2.084.086-1.618-1.035-2.2-2.465-2.275a20.216,20.216,0,0,0-2.934-.021c-1.807.166-4.591-.774-4.648,2.1C616.945-33.922,619.915-35.131,621.4-34.836Zm16.581-4.35c-.982,0-1.971-.073-2.945.018-1.3.121-2.333.769-2.3,2.193a2.135,2.135,0,0,0,2.374,2.106c1.865.053,3.734.078,5.6.005a2.141,2.141,0,0,0,2.294-2.2c-.012-1.391-1.052-2.031-2.372-2.117C639.753-39.238,638.866-39.192,637.982-39.186ZM622.009-25.979v.055c.88,0,1.761,0,2.641,0,1.536-.01,2.448-.784,2.4-2.319-.041-1.466-1.126-1.968-2.427-1.984-1.955-.023-3.914-.041-5.864.07a1.854,1.854,0,0,0-1.83,1.935A1.945,1.945,0,0,0,618.787-26,29.8,29.8,0,0,0,622.009-25.979Zm-.7-26.707c1.338,0,2.317.02,3.295,0,1.486-.037,2.494-.724,2.443-2.293-.047-1.428-1.074-1.994-2.392-2.054a20.376,20.376,0,0,0-2.933-.014c-1.872.187-4.8-.862-4.721,2.3C617.076-51.864,619.887-52.926,621.312-52.687Zm.62,35.657c.979,0,1.958.027,2.935-.006a2.034,2.034,0,0,0,2.2-2.212,1.942,1.942,0,0,0-2.079-2.021c-2.049-.075-4.108-.076-6.154.037a1.92,1.92,0,0,0-1.924,2.161A2,2,0,0,0,619-17.042C619.975-17,620.954-17.033,621.932-17.029Z" transform="translate(-598.505 73.745)" fill="#d86527"/>
    <g id="Grupo_211" data-name="Grupo 211" transform="translate(53.477 40.474) rotate(9)">
      <path id="Trazado_529" data-name="Trazado 529" d="M2.667,13.662a4.52,4.52,0,0,1-.55-1.686,3.965,3.965,0,0,1,.363-2.629c.05-.1.161-.225.057-.32-.128-.117-.237.035-.332.1A5.208,5.208,0,0,0,.429,15.474,5.476,5.476,0,0,0,2.68,18a10.515,10.515,0,0,1,2.471,1.771A2.608,2.608,0,0,1,6.015,21.8c-.029.265.156.219.3.137a8.048,8.048,0,0,0,1.229-.874,7.215,7.215,0,0,0,2.7-4.841,6.157,6.157,0,0,0-.979-4.158,1.873,1.873,0,0,0-.127-.168c-.014-.017-.04-.023-.133-.072.038.318.075.594.1.87a3.858,3.858,0,0,1-.173,1.9,1.1,1.1,0,0,1-.488.58.593.593,0,0,1-.691-.062,1.577,1.577,0,0,1-.64-.934,4.759,4.759,0,0,1,.318-2.922c.431-.974.938-1.917,1.33-2.906A7.858,7.858,0,0,0,8.83,2.126,5.867,5.867,0,0,0,7.413.138c-.065-.06-.142-.206-.256-.1-.081.075.009.175.052.254A5.577,5.577,0,0,1,7.9,2.632,5.359,5.359,0,0,1,6.535,6.676,20.664,20.664,0,0,1,4.908,8.17a6.615,6.615,0,0,0-2.241,5.046C2.666,13.365,2.667,13.513,2.667,13.662Z" fill="#fff"/>
    </g>
    <g id="Grupo_212" data-name="Grupo 212" transform="matrix(0.996, -0.087, 0.087, 0.996, 0, 41.633)">
      <path id="Trazado_529-2" data-name="Trazado 529" d="M7.62,13.662a4.519,4.519,0,0,0,.55-1.686,3.965,3.965,0,0,0-.362-2.629c-.05-.1-.161-.225-.057-.32.128-.117.237.035.332.1a5.208,5.208,0,0,1,1.776,6.344A5.477,5.477,0,0,1,7.607,18a10.514,10.514,0,0,0-2.471,1.771A2.608,2.608,0,0,0,4.271,21.8c.029.265-.156.219-.3.137a8.048,8.048,0,0,1-1.229-.874,7.215,7.215,0,0,1-2.7-4.841,6.157,6.157,0,0,1,.979-4.158,1.863,1.863,0,0,1,.127-.168c.014-.017.04-.023.133-.072-.038.318-.075.594-.1.87a3.859,3.859,0,0,0,.173,1.9,1.1,1.1,0,0,0,.488.58.593.593,0,0,0,.691-.062,1.577,1.577,0,0,0,.64-.934,4.759,4.759,0,0,0-.318-2.922c-.431-.974-.938-1.917-1.33-2.906a7.858,7.858,0,0,1-.064-6.225A5.867,5.867,0,0,1,2.874.138c.065-.06.142-.206.256-.1.081.075-.009.175-.052.254a5.577,5.577,0,0,0-.694,2.34A5.359,5.359,0,0,0,3.752,6.676,20.663,20.663,0,0,0,5.379,8.17,6.615,6.615,0,0,1,7.62,13.216C7.621,13.365,7.62,13.513,7.62,13.662Z" fill="#fff"/>
    </g>
  </g>
</svg>
