<svg id="Componente_49_1" data-name="Componente 49 – 1" xmlns="http://www.w3.org/2000/svg" width="81" height="81" viewBox="0 0 81 81">
  <circle id="Elipse_40" data-name="Elipse 40" cx="40.5" cy="40.5" r="40.5" fill="#d86527"/>
  <g id="Grupo_216" data-name="Grupo 216" transform="translate(23.157 10.852)">
    <path id="Trazado_530" data-name="Trazado 530" d="M3.543,24h27.6a3.543,3.543,0,0,1,3.543,3.543V79.755A3.543,3.543,0,0,1,31.142,83.3H3.543A3.543,3.543,0,0,1,0,79.755V27.543A3.543,3.543,0,0,1,3.543,24Z" transform="translate(0 -24)" fill="#fff"/>
    <path id="Trazado_528" data-name="Trazado 528" d="M638.373-65.433c-1.931.414-5.2-.967-5.136,2.415.057,3.015,3.127,2.164,5.088,2.135,2.023-.03,5.238.993,5.181-2.334C643.453-66.268,640.33-65.074,638.373-65.433ZM621.62-60.85c1.328,0,2.232.01,3.136,0,1.543-.019,2.55-.757,2.541-2.338-.009-1.464-1.026-2.083-2.406-2.137a14.934,14.934,0,0,0-2.708-.03c-1.957.287-5.176-1.1-5.152,2.313C617.053-59.9,620.144-61.137,621.62-60.85Zm16.234,9.131c1.11,0,1.917-.01,2.723,0,1.573.025,2.989-.455,3.049-2.191.061-1.768-1.337-2.29-2.915-2.3a23.107,23.107,0,0,0-2.416-.007c-1.95.191-4.989-.86-5.06,2.185C633.161-50.91,636.222-51.953,637.854-51.719Zm.524,27.34v.056c.905,0,1.812.024,2.716-.005,1.529-.05,2.578-.8,2.518-2.377-.055-1.453-1.185-2.024-2.526-2.04-2.01-.023-4.028-.056-6.03.09a1.989,1.989,0,0,0-1.941,1.972,2.062,2.062,0,0,0,1.948,2.275A25.79,25.79,0,0,0,638.378-24.379Zm-.033,9.126c1.105,0,2.22.085,3.314-.024a2.07,2.07,0,0,0,1.97-1.958,1.939,1.939,0,0,0-1.646-2.209,22.543,22.543,0,0,0-7.2-.007,1.925,1.925,0,0,0-1.672,2.181,2.02,2.02,0,0,0,1.921,1.986C636.125-15.177,637.239-15.26,638.345-15.253ZM621.668-42.61c1.42,0,2.424.035,3.425-.008a2.1,2.1,0,0,0,2.217-2.316A2.041,2.041,0,0,0,625.164-47a14.264,14.264,0,0,0-3-.053c-1.956.263-5.177-1.12-5.113,2.332C617.106-41.545,620.221-42.952,621.668-42.61Zm16.857-4.524a30.261,30.261,0,0,0-3.6.226,2,2,0,0,0-1.827,2.075,2.007,2.007,0,0,0,1.808,2.1,53.914,53.914,0,0,0,6.922,0,2,2,0,0,0,1.821-2.1,2.021,2.021,0,0,0-1.812-2.092A26.556,26.556,0,0,0,638.525-47.134Zm-17.017,13.68c1.258,0,2.16-.005,3.062,0,1.48.011,2.642-.508,2.727-2.134.088-1.656-1.06-2.249-2.524-2.329a20.7,20.7,0,0,0-3-.021c-1.85.17-4.7-.793-4.759,2.149C616.946-32.518,619.986-33.757,621.508-33.454Zm16.976-4.453c-1.005,0-2.018-.075-3.015.018-1.331.124-2.389.787-2.352,2.245a2.186,2.186,0,0,0,2.431,2.157c1.909.054,3.823.079,5.73.005a2.192,2.192,0,0,0,2.348-2.254c-.012-1.424-1.077-2.079-2.428-2.167C640.3-37.962,639.389-37.914,638.484-37.908ZM622.13-24.387v.056c.9,0,1.8,0,2.7,0,1.573-.01,2.506-.8,2.462-2.374-.042-1.5-1.153-2.015-2.485-2.031-2-.023-4.008-.042-6,.072a1.9,1.9,0,0,0-1.874,1.981,1.992,1.992,0,0,0,1.9,2.272A30.512,30.512,0,0,0,622.13-24.387Zm-.713-27.343c1.37,0,2.372.021,3.373,0,1.522-.038,2.553-.741,2.5-2.348-.048-1.462-1.1-2.042-2.449-2.1a20.862,20.862,0,0,0-3-.015c-1.917.192-4.914-.882-4.834,2.359C617.08-50.888,619.958-51.975,621.417-51.73Zm.635,36.506c1,0,2,.027,3-.006a2.082,2.082,0,0,0,2.252-2.265,1.989,1.989,0,0,0-2.129-2.069c-2.1-.076-4.205-.078-6.3.038a1.966,1.966,0,0,0-1.97,2.212,2.05,2.05,0,0,0,2.138,2.077C620.048-15.19,621.051-15.227,622.052-15.224Z" transform="translate(-612.887 69.429)" fill="#d86527"/>
  </g>
  <g id="Grupo_217" data-name="Grupo 217" transform="translate(32.999 30.373)">
    <rect id="Rectángulo_50" data-name="Rectángulo 50" width="12.991" height="9.448" transform="translate(2.012 1.557)" fill="#d86527"/>
    <g id="Grupo_193" data-name="Grupo 193">
      <path id="Trazado_438" data-name="Trazado 438" d="M2239.429,563.294a18.844,18.844,0,0,1-.476,5.451,10.533,10.533,0,0,1-6.441,7.373,1.463,1.463,0,0,1-1.139.007,10.536,10.536,0,0,1-6.451-7.367c-.632-2.2-.442-4.449-.478-6.686-.01-.576.014-1.154,0-1.729-.016-.463.169-.6.631-.569a9.6,9.6,0,0,0,5.205-1.005,5.834,5.834,0,0,0,1.307-.922.447.447,0,0,1,.7-.01,8.608,8.608,0,0,0,6.386,1.937c.621-.033.8.149.774.741C2239.4,561.44,2239.429,562.367,2239.429,563.294Zm-8.66,5.344a.573.573,0,0,0,.354-.226l.8-.807c.87-.874,1.947-1.962,3.042-3.031.345-.337.2-.521-.057-.8-.286-.308-.48-.272-.753.009-.759.784-1.539,1.547-2.311,2.318-1.06,1.06-1.06,1.06-2.118.045a.574.574,0,0,1-.043-.044c-.231-.264-.453-.332-.706-.013-.2.254-.5.445-.1.8.534.483,1.022,1.015,1.532,1.524A.547.547,0,0,0,2230.769,568.638Z" transform="translate(-2224.438 -557.675)" fill="#fff" stroke="#d86527" stroke-width="1"/>
    </g>
  </g>
</svg>
