<svg id="Componente_47_1" data-name="Componente 47 – 1" xmlns="http://www.w3.org/2000/svg" width="81" height="81" viewBox="0 0 81 81">
  <circle id="Elipse_36" data-name="Elipse 36" cx="40.5" cy="40.5" r="40.5" fill="#d86527"/>
  <g id="Grupo_218" data-name="Grupo 218" transform="translate(21.657 14.707)">
    <path id="Trazado_537" data-name="Trazado 537" d="M112.126,82.253q-7.906,0-15.813,0a3.07,3.07,0,0,1-3.069-3.069V53.977a3.129,3.129,0,0,1,2.734-3.145c.351-.035.4-.211.394-.481,0-.935,0-1.871,0-2.806a15.142,15.142,0,0,1,4.106-10.431,15.589,15.589,0,0,1,6.891-4.416,12.851,12.851,0,0,1,4.053-.643,17.191,17.191,0,0,1,4.714.436,15.682,15.682,0,0,1,10.583,9.394,13.865,13.865,0,0,1,1.078,5.46c-.017,1,0,2-.008,3,0,.3.084.449.417.494a3.111,3.111,0,0,1,2.471,1.788,2.2,2.2,0,0,1,.248,1.005q0,8.536,0,17.072c0,2.885-.006,5.771,0,8.656a2.9,2.9,0,0,1-2.886,2.894Q120.084,82.258,112.126,82.253Zm-.026-31.43v0h3.662q2.566,0,5.136,0c.249,0,.494,0,.5-.35a18.684,18.684,0,0,0-.342-4.956,8.942,8.942,0,0,0-7.138-6.843,8.623,8.623,0,0,0-7.354,1.676,8.92,8.92,0,0,0-3.543,5.6,22.207,22.207,0,0,0-.246,4.167c0,.7,0,.7.722.7Q107.8,50.825,112.1,50.823Zm-.109,25.043v0c1.168,0,2.336-.008,3.5,0a.352.352,0,0,0,.363-.426c-.458-2.654-.9-5.311-1.355-7.964a.988.988,0,0,1,.287-.856,3.612,3.612,0,0,0,.99-3.776,3.684,3.684,0,0,0-3.09-2.74,3.846,3.846,0,0,0-3.975,1.84,3.632,3.632,0,0,0,.275,4.229,1.959,1.959,0,0,1,.528,2.027c-.017.061-.014.126-.024.189q-.6,3.536-1.217,7.072c-.053.3-.018.423.336.415C109.738,75.85,110.865,75.866,111.991,75.866Z" transform="translate(-93.244 -32.054)" fill="#fff"/>
  </g>
</svg>
