<svg xmlns="http://www.w3.org/2000/svg" width="81" height="81" viewBox="0 0 81 81">
  <g id="Grupo_244" data-name="Grupo 244" transform="translate(-1164 -3117.791)">
    <g id="Componente_32_2" data-name="Componente 32 – 2" transform="translate(1164 3117.791)">
      <circle id="Elipse_33" data-name="Elipse 33" cx="40.5" cy="40.5" r="40.5" fill="#d86527"/>
      <g id="Grupo_190" data-name="Grupo 190" transform="translate(10.955 23.071)">
        <path id="Trazado_430" data-name="Trazado 430" d="M1179.053,107.549c-2.4.142-4.436-.916-6.535-1.592-6.82-2.2-13.6-4.522-20.393-6.806a11.1,11.1,0,0,1-1.692-.687c-1.006-.537-1.011-1.328-.041-1.951a6.518,6.518,0,0,1,1.684-.7q10.692-3.2,21.384-6.408c.964-.288,1.935-.552,2.9-.83a9.115,9.115,0,0,1,5.232,0q9.643,2.88,19.282,5.772c1.782.533,3.567,1.057,5.351,1.584a4.39,4.39,0,0,1,1.558.747.917.917,0,0,1-.064,1.649,6.655,6.655,0,0,1-1.493.677q-11.326,3.775-22.658,7.531A11.325,11.325,0,0,1,1179.053,107.549Z" transform="translate(-1149.671 -88.192)" fill="#fff"/>
        <path id="Trazado_431" data-name="Trazado 431" d="M1211.565,183.011c0-1.677-.007-3.354,0-5.031.006-1.019.1-1.088,1.047-.774,3.877,1.285,7.8,2.46,11.615,3.9a14.34,14.34,0,0,0,10.591-.014c3.79-1.429,7.68-2.594,11.529-3.87,1.014-.336,1.1-.279,1.1.794.007,3.293-.009,6.587.01,9.88a2.883,2.883,0,0,1-.924,2.2,12.723,12.723,0,0,1-3.907,2.5,31.884,31.884,0,0,1-10.182,2.414,34.733,34.733,0,0,1-13.892-1.561,17.356,17.356,0,0,1-5.369-2.692,3.711,3.711,0,0,1-1.644-3.359C1211.643,185.944,1211.565,184.475,1211.565,183.011Z" transform="translate(-1200.204 -160.771)" fill="#fff"/>
        <path id="Trazado_432" data-name="Trazado 432" d="M1431.793,166.639c0,.122.007.244,0,.366a11.439,11.439,0,0,0,1.159,6.256c1.36,2.583.6,4.322-1.739,6.051a1.1,1.1,0,0,1-1.474.035c-2.34-1.6-3.031-3.409-1.824-5.964a12.417,12.417,0,0,0,1.15-6.272c-.048-.759-.008-1.523-.008-2.284,0-1.893.007-1.872,1.8-2.457.73-.239.959.028.939.707,0,.061,0,.122,0,.183Q1431.792,164.948,1431.793,166.639Z" transform="translate(-1376.484 -148.714)" fill="#fff"/>
      </g>
    </g>
  </g>
</svg>
