<svg id="Componente_48_1" data-name="Componente 48 – 1" xmlns="http://www.w3.org/2000/svg" width="101" height="81" viewBox="0 0 101 81">
  <g id="Grupo_253" data-name="Grupo 253" transform="translate(9)">
    <g id="Grupo_252" data-name="Grupo 252" transform="translate(0)">
      <g id="Grupo_251" data-name="Grupo 251">
        <g id="Grupo_250" data-name="Grupo 250">
          <ellipse id="Elipse_35" data-name="Elipse 35" cx="38.893" cy="40.5" rx="38.893" ry="40.5" transform="translate(0.85)" fill="#d86527"/>
          <g id="Grupo_213" data-name="Grupo 213" transform="translate(-9 18.79)">
            <path id="Trazado_531" data-name="Trazado 531" d="M36.525,67.344a11.258,11.258,0,0,0,1.608,2.11c.492.581,1.027,1.126,1.545,1.685a2.71,2.71,0,0,1-.022,3.768,2.777,2.777,0,0,1-3.828.166,10.4,10.4,0,0,1-1.314-1.43c-.347-.448-.154-1-.174-1.49a5.776,5.776,0,0,0-2.558-4.742,1.9,1.9,0,0,0-.639-.371c-.774-.166-1.044-.711-1.331-1.381A5.738,5.738,0,0,0,26.594,62.5c-.234-.094-.451-.166-.535-.456a5.634,5.634,0,0,0-3.308-3.571,1.173,1.173,0,0,1-.706-.757,5.786,5.786,0,0,0-5.449-3.7,6.875,6.875,0,0,0-5.1,2.17,6.03,6.03,0,0,0-1.128,1.847c-.154.362-.376.46-.718.3a14.833,14.833,0,0,0-2.266-.788.692.692,0,0,1-.567-.735c-.2-4.451-23.161-8.32-21.5-12.481.752-1.89,7.161-17.366,8.347-19.047.217-.309,18.319,12.766,18.664,12.887a9.594,9.594,0,0,0,3.226.677,7.026,7.026,0,0,0,3.744-1.362,40.991,40.991,0,0,1,7.062-3.621,8.3,8.3,0,0,1,6.71.043,6.932,6.932,0,0,1,1.644,1.126c.3.263.272.439-.087.634-1.374.747-2.756,1.483-4.1,2.286a40.217,40.217,0,0,0-4.183,2.679,5.95,5.95,0,0,0-1.328,7.414,6.031,6.031,0,0,0,4.7,2.958,6.392,6.392,0,0,0,3.337-.866c1.917-.849,3.763-1.844,5.711-2.623a3.941,3.941,0,0,1,4.6.964c2.859,2.883,5.738,5.748,8.607,8.621.887.89,1.789,1.767,2.654,2.676a2.877,2.877,0,0,1,.41,3.438,2.744,2.744,0,0,1-3.2,1.148A4.2,4.2,0,0,1,50.045,63a42.734,42.734,0,0,0-3.573-3.3,2.8,2.8,0,0,0,.771,1.28c.9,1.111,1.914,2.117,2.845,3.2a2.845,2.845,0,0,1,.234,3.715,2.812,2.812,0,0,1-4.067.217c-1.584-1.456-3.161-2.924-4.851-4.262a1.855,1.855,0,0,0-.8-.439,14.977,14.977,0,0,0,2.175,2.324c.675.644,1.391,1.244,2.066,1.885a2.839,2.839,0,0,1,.236,4.007,2.783,2.783,0,0,1-4.043.063c-.622-.588-1.172-1.251-1.779-1.856-.716-.711-1.456-1.4-2.194-2.088A5.338,5.338,0,0,0,36.525,67.344Z" transform="translate(14.772 -25.285)" fill="#fff"/>
            <path id="Trazado_532" data-name="Trazado 532" d="M74.839,48.219c0,.646-1.121-1.171-1.111-.522,0,.318-18.282,9.252-18.6,9.315a44.648,44.648,0,0,1-6.485,1.022,4.247,4.247,0,0,1-3.327-1.365c-4.026-4.009-8.1-7.973-12.091-12.016a3.9,3.9,0,0,0-4.417-.757c-1.271.612-2.5,1.3-3.754,1.95-1.538.8-3.057,1.639-4.629,2.372A3.714,3.714,0,0,1,15.273,46.5a3.156,3.156,0,0,1,.762-3.744,12.152,12.152,0,0,1,2.408-1.627c4.354-2.522,8.727-5.012,13.144-7.421a4.269,4.269,0,0,1,5.01.374c1.393,1.037,2.669,2.216,4,3.325,1.039.866,2.042,1.777,3.071,2.654a2.8,2.8,0,0,0,2.5.446c1.495-.3,2.98-.636,4.46-1,.547-.135,18-12.447,18.244-11.977,1.811,3.411,5.516,13.255,5.965,17.122A23.472,23.472,0,0,1,74.839,48.219Z" transform="translate(26.088 -25.445)" fill="#fff"/>
            <path id="Trazado_533" data-name="Trazado 533" d="M8.929,47.812c-.055-2.211,1.977-5.08,4.689-4.938a3.242,3.242,0,0,1,3.149,3.214c.007.94-.063.9.89.923a3.148,3.148,0,0,1,3.033,3.513c-.027.492.1.579.542.583A3,3,0,0,1,24.5,53.476a3.474,3.474,0,0,1,.022,1.478c-.087.444.029.538.458.47a3.3,3.3,0,0,1,3.633,2.293,3.942,3.942,0,0,1-1.883,4.4,5.667,5.667,0,0,1-3.129.952,2.665,2.665,0,0,1-2.524-3.9c.113-.265.441-.571.212-.815-.186-.2-.533.07-.8.152a2.805,2.805,0,0,1-2.722-.328,2.542,2.542,0,0,1-.718-3.288c.07-.178.309-.376.116-.562-.145-.137-.366.012-.54.068a4.049,4.049,0,0,1-1.459.251,2.484,2.484,0,0,1-2.187-3.2c.123-.4.53-.909.323-1.15-.253-.294-.752.128-1.15.21A2.565,2.565,0,0,1,8.929,47.812Z" transform="translate(18.17 -11.619)" fill="#fff"/>
          </g>
        </g>
      </g>
    </g>
  </g>
</svg>
