<svg id="Componente_56_4" data-name="Componente 56 – 4" xmlns="http://www.w3.org/2000/svg" width="81" height="81" viewBox="0 0 81 81">
  <g id="Grupo_263" data-name="Grupo 263" transform="translate(-1842 -3118)">
    <g id="Componente_35_6" data-name="Componente 35 – 6" transform="translate(1842 3118)">
      <circle id="Elipse_36" data-name="Elipse 36" cx="40.5" cy="40.5" r="40.5" fill="#d86527"/>
    </g>
  </g>
  <g id="Grupo_266" data-name="Grupo 266" transform="translate(-125.421 -32.631)">
    <path id="Trazado_601" data-name="Trazado 601" d="M154.348,54.649c.414,0,.828,0,1.242,0a10.168,10.168,0,0,1,2.45.515,9.254,9.254,0,0,1,2.12.856,11.152,11.152,0,0,1,2.694,1.937c.9.912,1.817,1.8,2.723,2.706a.469.469,0,0,0,.769,0c1.093-1.086,2.126-2.236,3.306-3.226a12.37,12.37,0,0,1,3.213-1.905c.886-.373,1.817-.532,2.72-.813a2.052,2.052,0,0,1,.551-.063c.486-.01.974.008,1.458-.014a10.777,10.777,0,0,1,3.77.555,12.4,12.4,0,0,1,7.138,5.746,15.075,15.075,0,0,1,1.409,3.72,14.07,14.07,0,0,1,.184,4.13,8.992,8.992,0,0,1-.468,2.068c-.22.752-.527,1.465-.816,2.184a15.04,15.04,0,0,1-.976,1.844c-.62,1.073-1.354,2.07-2.074,3.077-1.1,1.542-2.281,3.026-3.482,4.494a94.35,94.35,0,0,1-8.3,8.918q-1.4,1.316-2.888,2.534c-1.216.988-2.454,1.946-3.691,2.906a2.2,2.2,0,0,1-2.737.089c-1.52-1.083-2.961-2.268-4.4-3.456a77.99,77.99,0,0,1-6.851-6.631c-1.569-1.656-3.039-3.4-4.47-5.175a63.666,63.666,0,0,1-4.559-6.241,21.517,21.517,0,0,1-1.445-2.753,12.425,12.425,0,0,1-.812-2.279,12.877,12.877,0,0,1-.426-3.76,19.96,19.96,0,0,1,.362-2.265,11.252,11.252,0,0,1,.82-2.367,12.43,12.43,0,0,1,2.373-3.524,12.08,12.08,0,0,1,2.827-2.191,13.949,13.949,0,0,1,3.678-1.4A17.257,17.257,0,0,1,154.348,54.649ZM169.795,74.3v0c-.529,0-1.057,0-1.586,0s-.623-.091-.626-.628c-.005-1.044,0-2.088-.007-3.131a1.557,1.557,0,0,0-1.147-1.473,1.642,1.642,0,0,0-2.117,1.719c0,.9,0,1.8,0,2.7,0,.766-.044.811-.791.812-.886,0-1.774.026-2.659-.01a1.966,1.966,0,0,0-1.234.379,1.677,1.677,0,0,0-.409,2.077,1.738,1.738,0,0,0,1.6.807c.871.022,1.744,0,2.616.01.747.012.877.152.878.884,0,.944-.013,1.887.007,2.831a1.68,1.68,0,0,0,1.8,1.624c.691.04,1.483-.923,1.465-1.659-.026-.972-.01-1.945,0-2.917,0-.62.147-.764.755-.765.9,0,1.8,0,2.7,0a2.143,2.143,0,0,0,1.147-.293c.687-.425.768-1.028.589-1.935a1.577,1.577,0,0,0-1.436-1.027C170.824,74.3,170.31,74.3,169.795,74.3Z" transform="translate(0)" fill="#fff"/>
  </g>
</svg>
