<svg xmlns="http://www.w3.org/2000/svg" width="81" height="81" viewBox="0 0 81 81">
  <g id="Grupo_247" data-name="Grupo 247" transform="translate(-1842 -3118)">
    <g id="Componente_35_2" data-name="Componente 35 – 2" transform="translate(1842 3118)">
      <circle id="Elipse_36" data-name="Elipse 36" cx="40.5" cy="40.5" r="40.5" fill="#d86527"/>
      <g id="Grupo_193" data-name="Grupo 193" transform="translate(18.751 13.276)">
        <path id="Trazado_438" data-name="Trazado 438" d="M2268.241,574.093c.076,5.356.084,10.68-1.391,15.928-2.868,10.2-8.895,17.55-18.822,21.544a4.276,4.276,0,0,1-3.327.021c-9.969-3.953-15.932-11.354-18.85-21.526-1.847-6.441-1.291-13-1.4-19.537-.027-1.684.042-3.371-.014-5.054-.045-1.353.495-1.761,1.842-1.661a28.029,28.029,0,0,0,15.208-2.937,17.057,17.057,0,0,0,3.821-2.694,1.308,1.308,0,0,1,2.035-.031c5.37,4.662,11.787,6.023,18.659,5.661,1.815-.1,2.331.437,2.263,2.165C2268.163,568.675,2268.241,571.386,2268.241,574.093Zm-25.306,15.616a1.672,1.672,0,0,0,1.036-.661c3.741-3.743,7.451-7.518,11.238-11.213,1.009-.984.587-1.522-.166-2.332-.836-.9-1.4-.8-2.2.027-2.217,2.291-4.5,4.519-6.751,6.773-3.1,3.1-3.1,3.1-6.189.132-.043-.042-.087-.083-.127-.128-.673-.772-1.324-.97-2.062-.039-.589.742-1.462,1.3-.3,2.348,1.559,1.41,2.986,2.966,4.476,4.453A1.6,1.6,0,0,0,2242.936,589.71Z" transform="translate(-2224.438 -557.675)" fill="#fff"/>
      </g>
    </g>
  </g>
</svg>
