<svg xmlns="http://www.w3.org/2000/svg" width="81" height="81" viewBox="0 0 81 81">
  <g id="Grupo_264" data-name="Grupo 264" transform="translate(-1842 -3118)">
    <g id="Componente_35_14" data-name="Componente 35 – 14" transform="translate(1842 3118)">
      <circle id="Elipse_36" data-name="Elipse 36" cx="40.5" cy="40.5" r="40.5" fill="#d86527"/>
    </g>
  </g>
  <g id="Grupo_267" data-name="Grupo 267" transform="translate(8.175 0.948)">
    <path id="Trazado_602" data-name="Trazado 602" d="M15.407,23c-.443.859-.917,1.706-1.4,2.61-1.456-1.026-2.95-.462-4.393-.346-.853.064-.891.847-.872,1.558a1.093,1.093,0,0,0,1.045,1.186c.744.09,1.5.128,2.482.212-.5.282-.8.436-1.077.609" transform="translate(1.457 5.129)" fill="#fff"/>
    <path id="Trazado_603" data-name="Trazado 603" d="M16.832,23.712c-.443,1.982-8.8,12.3-8.35,23.255.019.443.276,1.161.6,1.283.949.359.827,1.045.808,1.764-.006.391-.006.782.006,1.174a2.026,2.026,0,0,0,2.027,2.123,24.853,24.853,0,0,0,2.764-.019,1.953,1.953,0,0,0,1.937-2.014,10.975,10.975,0,0,0,.006-1.59c-.077-.776.224-.988.994-.988,6.593.026,13.186.006,19.785.006,3.239,0,6.484.013,9.723-.013.654-.006.911.192.853.859a12.363,12.363,0,0,0-.006,1.757A1.958,1.958,0,0,0,49.944,53.3a23.429,23.429,0,0,0,2.848-.019,1.948,1.948,0,0,0,1.918-2.039c.026-.667-.013-1.34.026-2.007.013-.218.122-.571.269-.622,1.109-.4,1.18-1.3,1.18-2.257L56.177,44.1a67.31,67.31,0,0,0-9.254-21.561" transform="translate(0 2.633)" fill="#fff"/>
    <path id="Trazado_604" data-name="Trazado 604" d="M40.2,25.492a6.531,6.531,0,0,0-5.3-3.136,143.3,143.3,0,0,0-18.849.013,8.111,8.111,0,0,0-1.969.333,7.857,7.857,0,0,0-4.348,4.1" transform="translate(6.9 0)" fill="#fff"/>
    <path id="Trazado_605" data-name="Trazado 605" d="M42.027,30.842a258.023,258.023,0,0,0-32.349-.006,2.389,2.389,0,0,1,.135-.532c.9-1.7,1.8-3.405,2.745-5.092A4.753,4.753,0,0,1,16.6,22.639a120.79,120.79,0,0,1,18.842.083,3.628,3.628,0,0,1,2.822,1.616C39.583,26.4,40.725,28.565,42.027,30.842Z" transform="translate(6.57 1.41)" fill="#d86527"/>
    <path id="Trazado_606" data-name="Trazado 606" d="M8.733,23c.443.859.917,1.706,1.4,2.61,1.456-1.026,2.95-.462,4.393-.346.853.064.891.847.872,1.559a1.093,1.093,0,0,1-1.045,1.187c-.744.09-1.5.128-2.482.212.5.282.8.436,1.077.609" transform="translate(38.779 5.128)" fill="#fff"/>
  </g>
</svg>
